<svg width="189" height="856" viewBox="0 0 189 856" fill="none" xmlns="http://www.w3.org/2000/svg">
<path d="M5.424 829.192C4.00533 829.192 2.90133 828.712 2.112 827.752C1.32267 826.781 0.928 825.357 0.928 823.48C0.928 821.603 1.32267 820.163 2.112 819.16C2.90133 818.147 4.00533 817.64 5.424 817.64C6.36267 817.64 7.14667 817.853 7.776 818.28C8.416 818.707 8.912 819.309 9.264 820.088L8.176 820.744C7.952 820.168 7.61067 819.709 7.152 819.368C6.69333 819.016 6.11733 818.84 5.424 818.84C4.944 818.84 4.512 818.931 4.128 819.112C3.75467 819.293 3.43467 819.555 3.168 819.896C2.912 820.227 2.71467 820.627 2.576 821.096C2.43733 821.555 2.368 822.072 2.368 822.648L2.368 824.312C2.368 825.464 2.63467 826.365 3.168 827.016C3.70133 827.667 4.45333 827.992 5.424 827.992C6.13867 827.992 6.736 827.811 7.216 827.448C7.696 827.075 8.048 826.584 8.272 825.976L9.344 826.648C8.992 827.437 8.48533 828.061 7.824 828.52C7.16267 828.968 6.36267 829.192 5.424 829.192ZM14.4175 829.192C13.8628 829.192 13.3562 829.091 12.8975 828.888C12.4388 828.685 12.0442 828.397 11.7135 828.024C11.3935 827.64 11.1428 827.187 10.9615 826.664C10.7802 826.131 10.6895 825.533 10.6895 824.872C10.6895 824.221 10.7802 823.629 10.9615 823.096C11.1428 822.563 11.3935 822.109 11.7135 821.736C12.0442 821.352 12.4388 821.059 12.8975 820.856C13.3562 820.653 13.8628 820.552 14.4175 820.552C14.9722 820.552 15.4735 820.653 15.9215 820.856C16.3802 821.059 16.7748 821.352 17.1055 821.736C17.4362 822.109 17.6922 822.563 17.8735 823.096C18.0548 823.629 18.1455 824.221 18.1455 824.872C18.1455 825.533 18.0548 826.131 17.8735 826.664C17.6922 827.187 17.4362 827.64 17.1055 828.024C16.7748 828.397 16.3802 828.685 15.9215 828.888C15.4735 829.091 14.9722 829.192 14.4175 829.192ZM14.4175 828.056C15.1108 828.056 15.6762 827.843 16.1135 827.416C16.5508 826.989 16.7695 826.339 16.7695 825.464L16.7695 824.28C16.7695 823.405 16.5508 822.755 16.1135 822.328C15.6762 821.901 15.1108 821.688 14.4175 821.688C13.7242 821.688 13.1588 821.901 12.7215 822.328C12.2842 822.755 12.0655 823.405 12.0655 824.28L12.0655 825.464C12.0655 826.339 12.2842 826.989 12.7215 827.416C13.1588 827.843 13.7242 828.056 14.4175 828.056ZM20.2506 820.744L21.5306 820.744L21.5306 822.088L21.5946 822.088C21.808 821.565 22.1173 821.181 22.5226 820.936C22.9386 820.68 23.4346 820.552 24.0106 820.552C24.5226 820.552 24.9866 820.653 25.4026 820.856C25.8186 821.059 26.1706 821.347 26.4586 821.72C26.7573 822.093 26.9813 822.547 27.1306 823.08C27.2906 823.613 27.3706 824.211 27.3706 824.872C27.3706 825.533 27.2906 826.131 27.1306 826.664C26.9813 827.197 26.7573 827.651 26.4586 828.024C26.1706 828.397 25.8186 828.685 25.4026 828.888C24.9866 829.091 24.5226 829.192 24.0106 829.192C22.8906 829.192 22.0853 828.68 21.5946 827.656L21.5306 827.656L21.5306 832.2L20.2506 832.2L20.2506 820.744ZM23.6586 828.04C24.384 828.04 24.9546 827.816 25.3706 827.368C25.7866 826.909 25.9946 826.312 25.9946 825.576L25.9946 824.168C25.9946 823.432 25.7866 822.84 25.3706 822.392C24.9546 821.933 24.384 821.704 23.6586 821.704C23.3706 821.704 23.0933 821.747 22.8266 821.832C22.5706 821.907 22.3466 822.013 22.1546 822.152C21.9626 822.291 21.808 822.461 21.6906 822.664C21.584 822.856 21.5306 823.064 21.5306 823.288L21.5306 826.36C21.5306 826.627 21.584 826.867 21.6906 827.08C21.808 827.283 21.9626 827.459 22.1546 827.608C22.3466 827.747 22.5706 827.853 22.8266 827.928C23.0933 828.003 23.3706 828.04 23.6586 828.04ZM34.5418 820.744L35.8058 820.744L32.1098 830.92C32.0138 831.165 31.9178 831.368 31.8217 831.528C31.7257 831.699 31.6084 831.832 31.4697 831.928C31.3311 832.024 31.1551 832.093 30.9417 832.136C30.7391 832.179 30.4884 832.2 30.1898 832.2L29.5337 832.2L29.5337 831.08L30.8297 831.08L31.4537 829.32L28.3657 820.744L29.6457 820.744L31.6298 826.36L32.0137 827.704L32.0937 827.704L32.5418 826.36L34.5418 820.744ZM37.4381 829L37.4381 820.744L38.7181 820.744L38.7181 822.264L38.7981 822.264C38.9475 821.869 39.2141 821.517 39.5981 821.208C39.9821 820.899 40.5101 820.744 41.1821 820.744L41.6781 820.744L41.6781 822.024L40.9261 822.024C40.2328 822.024 39.6888 822.157 39.2941 822.424C38.9101 822.68 38.7181 823.005 38.7181 823.4L38.7181 829L37.4381 829ZM43.9531 818.808C43.6758 818.808 43.4731 818.744 43.3451 818.616C43.2278 818.477 43.1691 818.301 43.1691 818.088L43.1691 817.88C43.1691 817.667 43.2278 817.496 43.3451 817.368C43.4731 817.229 43.6758 817.16 43.9531 817.16C44.2305 817.16 44.4278 817.229 44.5451 817.368C44.6731 817.496 44.7371 817.667 44.7371 817.88L44.7371 818.088C44.7371 818.301 44.6731 818.477 44.5451 818.616C44.4278 818.744 44.2305 818.808 43.9531 818.808ZM43.3131 820.744L44.5931 820.744L44.5931 829L43.3131 829L43.3131 820.744ZM54.2731 829.912C54.2731 830.765 53.9371 831.389 53.2651 831.784C52.6038 832.189 51.6065 832.392 50.2731 832.392C48.9825 832.392 48.0545 832.216 47.4891 831.864C46.9238 831.512 46.6411 831.011 46.6411 830.36C46.6411 829.912 46.7585 829.56 46.9931 829.304C47.2278 829.059 47.5478 828.877 47.9531 828.76L47.9531 828.584C47.4625 828.349 47.2171 827.965 47.2171 827.432C47.2171 827.016 47.3505 826.701 47.6171 826.488C47.8838 826.264 48.2251 826.099 48.6411 825.992L48.6411 825.928C48.1505 825.693 47.7665 825.357 47.4891 824.92C47.2225 824.483 47.0891 823.976 47.0891 823.4C47.0891 822.984 47.1638 822.6 47.3131 822.248C47.4625 821.896 47.6705 821.597 47.9371 821.352C48.2145 821.096 48.5398 820.899 48.9131 820.76C49.2971 820.621 49.7238 820.552 50.1931 820.552C50.7798 820.552 51.3025 820.659 51.7611 820.872L51.7611 820.728C51.7611 820.408 51.8358 820.147 51.9851 819.944C52.1345 819.731 52.3798 819.624 52.7211 819.624L53.9531 819.624L53.9531 820.744L52.3851 820.744L52.3851 821.272C52.6838 821.528 52.9131 821.837 53.0731 822.2C53.2438 822.552 53.3291 822.952 53.3291 823.4C53.3291 823.816 53.2545 824.2 53.1051 824.552C52.9558 824.904 52.7425 825.208 52.4651 825.464C52.1985 825.709 51.8731 825.901 51.4891 826.04C51.1051 826.179 50.6785 826.248 50.2091 826.248C49.9425 826.248 49.6758 826.221 49.4091 826.168C49.1318 826.243 48.8811 826.355 48.6571 826.504C48.4331 826.643 48.3211 826.84 48.3211 827.096C48.3211 827.341 48.4385 827.507 48.6731 827.592C48.9078 827.677 49.2118 827.72 49.5851 827.72L51.3451 827.72C52.3691 827.72 53.1105 827.917 53.5691 828.312C54.0385 828.696 54.2731 829.229 54.2731 829.912ZM53.0731 830.008C53.0731 829.677 52.9451 829.411 52.6891 829.208C52.4438 829.016 52.0011 828.92 51.3611 828.92L48.6091 828.92C48.0971 829.155 47.8411 829.528 47.8411 830.04C47.8411 830.403 47.9745 830.712 48.2411 830.968C48.5185 831.224 48.9825 831.352 49.6331 831.352L50.8171 831.352C51.5318 831.352 52.0865 831.24 52.4811 831.016C52.8758 830.792 53.0731 830.456 53.0731 830.008ZM50.2091 825.224C50.7531 825.224 51.1851 825.096 51.5051 824.84C51.8251 824.573 51.9851 824.168 51.9851 823.624L51.9851 823.176C51.9851 822.632 51.8251 822.232 51.5051 821.976C51.1851 821.709 50.7531 821.576 50.2091 821.576C49.6651 821.576 49.2331 821.709 48.9131 821.976C48.5931 822.232 48.4331 822.632 48.4331 823.176L48.4331 823.624C48.4331 824.168 48.5931 824.573 48.9131 824.84C49.2331 825.096 49.6651 825.224 50.2091 825.224ZM55.7662 817.16L57.0463 817.16L57.0463 822.088L57.1103 822.088C57.3129 821.619 57.5956 821.245 57.9583 820.968C58.3316 820.691 58.8276 820.552 59.4463 820.552C60.2996 820.552 60.9716 820.829 61.4623 821.384C61.9636 821.928 62.2143 822.701 62.2143 823.704L62.2143 829L60.9343 829L60.9343 823.928C60.9343 822.445 60.3103 821.704 59.0623 821.704C58.8063 821.704 58.5556 821.736 58.3103 821.8C58.0756 821.864 57.8623 821.96 57.6703 822.088C57.4783 822.216 57.3236 822.381 57.2063 822.584C57.0996 822.776 57.0463 823.005 57.0462 823.272L57.0462 829L55.7662 829L55.7662 817.16ZM66.684 829C66.236 829 65.8947 828.877 65.66 828.632C65.436 828.376 65.324 828.045 65.324 827.64L65.324 821.864L63.964 821.864L63.964 820.744L64.732 820.744C65.0093 820.744 65.196 820.691 65.292 820.584C65.3987 820.467 65.452 820.269 65.452 819.992L65.452 818.456L66.604 818.456L66.604 820.744L68.412 820.744L68.412 821.864L66.604 821.864L66.604 827.88L68.284 827.88L68.284 829L66.684 829ZM79.0986 829.176C78.352 829.176 77.6533 829.043 77.0026 828.776C76.352 828.509 75.7866 828.131 75.3066 827.64C74.8266 827.139 74.448 826.531 74.1706 825.816C73.8933 825.101 73.7546 824.301 73.7546 823.416C73.7546 822.531 73.8933 821.731 74.1706 821.016C74.448 820.301 74.8266 819.699 75.3066 819.208C75.7866 818.707 76.352 818.323 77.0026 818.056C77.6533 817.789 78.352 817.656 79.0986 817.656C79.8453 817.656 80.544 817.789 81.1946 818.056C81.8453 818.323 82.4106 818.707 82.8906 819.208C83.3706 819.699 83.7493 820.301 84.0266 821.016C84.304 821.731 84.4426 822.531 84.4426 823.416C84.4426 824.301 84.304 825.101 84.0266 825.816C83.7493 826.531 83.3706 827.139 82.8906 827.64C82.4106 828.131 81.8453 828.509 81.1946 828.776C80.544 829.043 79.8453 829.176 79.0986 829.176ZM79.0986 828.216C79.7173 828.216 80.288 828.109 80.8106 827.896C81.3333 827.672 81.7813 827.368 82.1546 826.984C82.5386 826.6 82.832 826.147 83.0346 825.624C83.248 825.091 83.3546 824.515 83.3546 823.896L83.3546 822.936C83.3546 822.317 83.248 821.747 83.0346 821.224C82.832 820.691 82.5386 820.232 82.1546 819.848C81.7813 819.464 81.3333 819.165 80.8106 818.952C80.288 818.728 79.7173 818.616 79.0986 818.616C78.4693 818.616 77.8933 818.728 77.3706 818.952C76.8586 819.165 76.4106 819.464 76.0266 819.848C75.6533 820.232 75.36 820.691 75.1466 821.224C74.944 821.747 74.8426 822.317 74.8426 822.936L74.8426 823.896C74.8426 824.515 74.944 825.091 75.1466 825.624C75.36 826.147 75.6533 826.6 76.0266 826.984C76.4106 827.368 76.8586 827.672 77.3706 827.896C77.8933 828.109 78.4693 828.216 79.0986 828.216ZM79.2266 826.52C78.3946 826.52 77.744 826.243 77.2746 825.688C76.816 825.123 76.5866 824.365 76.5866 823.416C76.5866 822.467 76.816 821.715 77.2746 821.16C77.744 820.595 78.3946 820.312 79.2266 820.312C79.7706 820.312 80.2133 820.44 80.5546 820.696C80.9066 820.952 81.1733 821.288 81.3546 821.704L80.4426 822.216C80.3253 821.939 80.1706 821.72 79.9786 821.56C79.7866 821.4 79.536 821.32 79.2266 821.32C78.7573 821.32 78.4 821.469 78.1546 821.768C77.92 822.056 77.8026 822.435 77.8026 822.904L77.8026 823.944C77.8026 824.413 77.92 824.797 78.1546 825.096C78.4 825.384 78.7573 825.528 79.2266 825.528C79.568 825.528 79.84 825.443 80.0426 825.272C80.2453 825.091 80.4266 824.856 80.5866 824.568L81.4506 825.112C81.2693 825.517 80.992 825.853 80.6186 826.12C80.256 826.387 79.792 826.52 79.2266 826.52ZM93.8405 829L86.5125 829L86.5125 827.624L90.1605 824.264C90.6832 823.784 91.1205 823.277 91.4725 822.744C91.8245 822.2 92.0005 821.656 92.0005 821.112L92.0005 820.92C92.0005 820.301 91.8298 819.8 91.4885 819.416C91.1472 819.032 90.6298 818.84 89.9365 818.84C89.5952 818.84 89.2965 818.888 89.0405 818.984C88.7845 819.08 88.5605 819.213 88.3685 819.384C88.1872 819.555 88.0325 819.757 87.9045 819.992C87.7872 820.216 87.6912 820.461 87.6165 820.728L86.4165 820.264C86.5232 819.933 86.6672 819.613 86.8485 819.304C87.0405 818.984 87.2752 818.701 87.5525 818.456C87.8405 818.211 88.1818 818.013 88.5765 817.864C88.9818 817.715 89.4565 817.64 90.0005 817.64C90.5445 817.64 91.0298 817.72 91.4565 817.88C91.8832 818.04 92.2405 818.264 92.5285 818.552C92.8165 818.84 93.0352 819.181 93.1845 819.576C93.3445 819.971 93.4245 820.408 93.4245 820.888C93.4245 821.325 93.3605 821.731 93.2325 822.104C93.1152 822.477 92.9498 822.835 92.7365 823.176C92.5232 823.507 92.2618 823.832 91.9525 824.152C91.6538 824.472 91.3285 824.792 90.9765 825.112L87.9685 827.816L93.8405 827.816L93.8405 829ZM99.7063 829.192C98.3729 829.192 97.3969 828.685 96.7782 827.672C96.1702 826.659 95.8662 825.24 95.8662 823.416C95.8662 821.592 96.1702 820.173 96.7783 819.16C97.3969 818.147 98.3729 817.64 99.7063 817.64C101.04 817.64 102.01 818.147 102.618 819.16C103.237 820.173 103.546 821.592 103.546 823.416C103.546 825.24 103.237 826.659 102.618 827.672C102.01 828.685 101.04 829.192 99.7063 829.192ZM99.7063 828.024C100.144 828.024 100.517 827.933 100.826 827.752C101.136 827.571 101.386 827.315 101.578 826.984C101.77 826.653 101.909 826.264 101.994 825.816C102.09 825.368 102.138 824.872 102.138 824.328L102.138 822.504C102.138 821.96 102.09 821.464 101.994 821.016C101.909 820.568 101.77 820.179 101.578 819.848C101.386 819.517 101.136 819.261 100.826 819.08C100.517 818.899 100.144 818.808 99.7063 818.808C99.2689 818.808 98.8956 818.899 98.5863 819.08C98.2769 819.261 98.0263 819.517 97.8343 819.848C97.6423 820.179 97.4983 820.568 97.4022 821.016C97.3169 821.464 97.2742 821.96 97.2742 822.504L97.2742 824.328C97.2742 824.872 97.3169 825.368 97.4022 825.816C97.4982 826.264 97.6423 826.653 97.8343 826.984C98.0262 827.315 98.2769 827.571 98.5862 827.752C98.8956 827.933 99.2689 828.024 99.7063 828.024ZM113.028 829L105.7 829L105.7 827.624L109.348 824.264C109.871 823.784 110.308 823.277 110.66 822.744C111.012 822.2 111.188 821.656 111.188 821.112L111.188 820.92C111.188 820.301 111.017 819.8 110.676 819.416C110.335 819.032 109.817 818.84 109.124 818.84C108.783 818.84 108.484 818.888 108.228 818.984C107.972 819.08 107.748 819.213 107.556 819.384C107.375 819.555 107.22 819.757 107.092 819.992C106.975 820.216 106.879 820.461 106.804 820.728L105.604 820.264C105.711 819.933 105.855 819.613 106.036 819.304C106.228 818.984 106.463 818.701 106.74 818.456C107.028 818.211 107.369 818.013 107.764 817.864C108.169 817.715 108.644 817.64 109.188 817.64C109.732 817.64 110.217 817.72 110.644 817.88C111.071 818.04 111.428 818.264 111.716 818.552C112.004 818.84 112.223 819.181 112.372 819.576C112.532 819.971 112.612 820.408 112.612 820.888C112.612 821.325 112.548 821.731 112.42 822.104C112.303 822.477 112.137 822.835 111.924 823.176C111.711 823.507 111.449 823.832 111.14 824.152C110.841 824.472 110.516 824.792 110.164 825.112L107.156 827.816L113.028 827.816L113.028 829ZM118.27 822.568C119.027 822.568 119.592 822.397 119.966 822.056C120.35 821.704 120.542 821.256 120.542 820.712L120.542 820.6C120.542 820.013 120.355 819.576 119.982 819.288C119.619 818.989 119.139 818.84 118.542 818.84C117.966 818.84 117.496 818.968 117.134 819.224C116.771 819.469 116.472 819.805 116.238 820.232L115.246 819.464C115.384 819.24 115.55 819.021 115.742 818.808C115.944 818.584 116.179 818.387 116.446 818.216C116.712 818.045 117.022 817.907 117.374 817.8C117.726 817.693 118.126 817.64 118.574 817.64C119.043 817.64 119.486 817.704 119.902 817.832C120.318 817.949 120.675 818.131 120.974 818.376C121.283 818.611 121.523 818.904 121.694 819.256C121.875 819.608 121.966 820.008 121.966 820.456C121.966 820.819 121.907 821.144 121.79 821.432C121.683 821.72 121.534 821.971 121.342 822.184C121.15 822.397 120.92 822.579 120.654 822.728C120.398 822.877 120.12 822.989 119.822 823.064L119.822 823.128C120.12 823.192 120.408 823.299 120.686 823.448C120.974 823.587 121.224 823.773 121.438 824.008C121.662 824.232 121.838 824.509 121.966 824.84C122.104 825.16 122.174 825.528 122.174 825.944C122.174 826.424 122.083 826.867 121.902 827.272C121.72 827.667 121.464 828.008 121.134 828.296C120.803 828.573 120.403 828.792 119.934 828.952C119.464 829.112 118.947 829.192 118.382 829.192C117.902 829.192 117.475 829.139 117.102 829.032C116.728 828.925 116.398 828.781 116.11 828.6C115.822 828.419 115.566 828.216 115.342 827.992C115.128 827.768 114.936 827.533 114.766 827.288L115.774 826.52C115.912 826.744 116.062 826.947 116.222 827.128C116.392 827.309 116.579 827.464 116.782 827.592C116.984 827.72 117.214 827.821 117.47 827.896C117.726 827.96 118.024 827.992 118.366 827.992C119.155 827.992 119.752 827.816 120.158 827.464C120.563 827.101 120.766 826.589 120.766 825.928L120.766 825.8C120.766 825.139 120.563 824.632 120.158 824.28C119.752 823.917 119.155 823.736 118.366 823.736L117.054 823.736L117.054 822.568L118.27 822.568ZM134.221 817.832L134.221 826.104C134.221 826.573 134.141 827 133.981 827.384C133.831 827.768 133.613 828.093 133.325 828.36C133.047 828.627 132.711 828.835 132.317 828.984C131.922 829.123 131.49 829.192 131.021 829.192C130.157 829.192 129.458 828.963 128.925 828.504C128.402 828.035 128.066 827.416 127.917 826.648L129.133 826.36C129.239 826.84 129.442 827.235 129.741 827.544C130.039 827.843 130.477 827.992 131.053 827.992C131.629 827.992 132.077 827.816 132.397 827.464C132.717 827.112 132.877 826.579 132.877 825.864L132.877 819.016L129.037 819.016L129.037 817.832L134.221 817.832ZM142.985 829C142.505 829 142.158 828.872 141.945 828.616C141.742 828.36 141.614 828.04 141.561 827.656L141.481 827.656C141.3 828.168 141.001 828.552 140.585 828.808C140.169 829.064 139.673 829.192 139.097 829.192C138.222 829.192 137.54 828.968 137.049 828.52C136.569 828.072 136.329 827.464 136.329 826.696C136.329 825.917 136.612 825.32 137.177 824.904C137.753 824.488 138.644 824.28 139.849 824.28L141.481 824.28L141.481 823.464C141.481 822.877 141.321 822.429 141.001 822.12C140.681 821.811 140.19 821.656 139.529 821.656C139.028 821.656 138.606 821.768 138.265 821.992C137.934 822.216 137.657 822.515 137.433 822.888L136.665 822.168C136.889 821.72 137.246 821.341 137.737 821.032C138.228 820.712 138.846 820.552 139.593 820.552C140.596 820.552 141.374 820.797 141.929 821.288C142.484 821.779 142.761 822.461 142.761 823.336L142.761 827.88L143.705 827.88L143.705 829L142.985 829ZM139.305 828.104C139.625 828.104 139.918 828.067 140.185 827.992C140.452 827.917 140.681 827.811 140.873 827.672C141.065 827.533 141.214 827.373 141.321 827.192C141.428 827.011 141.481 826.813 141.481 826.6L141.481 825.24L139.785 825.24C139.049 825.24 138.51 825.347 138.169 825.56C137.838 825.773 137.673 826.083 137.673 826.488L137.673 826.824C137.673 827.229 137.817 827.544 138.105 827.768C138.404 827.992 138.804 828.104 139.305 828.104ZM148.604 829.192C148.028 829.192 147.511 829.091 147.052 828.888C146.593 828.685 146.204 828.397 145.884 828.024C145.575 827.651 145.335 827.197 145.164 826.664C145.004 826.131 144.924 825.533 144.924 824.872C144.924 824.211 145.004 823.613 145.164 823.08C145.335 822.547 145.575 822.093 145.884 821.72C146.204 821.347 146.593 821.059 147.052 820.856C147.511 820.653 148.028 820.552 148.604 820.552C149.425 820.552 150.081 820.733 150.572 821.096C151.073 821.448 151.447 821.912 151.692 822.488L150.62 823.032C150.471 822.605 150.225 822.275 149.884 822.04C149.543 821.805 149.116 821.688 148.604 821.688C148.22 821.688 147.884 821.752 147.596 821.88C147.308 821.997 147.068 822.168 146.876 822.392C146.684 822.605 146.54 822.867 146.444 823.176C146.348 823.475 146.3 823.805 146.3 824.168L146.3 825.576C146.3 826.301 146.492 826.899 146.876 827.368C147.271 827.827 147.847 828.056 148.604 828.056C149.639 828.056 150.385 827.576 150.844 826.616L151.772 827.24C151.505 827.837 151.105 828.312 150.572 828.664C150.049 829.016 149.393 829.192 148.604 829.192ZM156.605 829.192C156.05 829.192 155.544 829.091 155.085 828.888C154.626 828.685 154.232 828.397 153.901 828.024C153.581 827.64 153.33 827.187 153.149 826.664C152.968 826.131 152.877 825.533 152.877 824.872C152.877 824.221 152.968 823.629 153.149 823.096C153.33 822.563 153.581 822.109 153.901 821.736C154.232 821.352 154.626 821.059 155.085 820.856C155.544 820.653 156.05 820.552 156.605 820.552C157.16 820.552 157.661 820.653 158.109 820.856C158.568 821.059 158.962 821.352 159.293 821.736C159.624 822.109 159.88 822.563 160.061 823.096C160.242 823.629 160.333 824.221 160.333 824.872C160.333 825.533 160.242 826.131 160.061 826.664C159.88 827.187 159.624 827.64 159.293 828.024C158.962 828.397 158.568 828.685 158.109 828.888C157.661 829.091 157.16 829.192 156.605 829.192ZM156.605 828.056C157.298 828.056 157.864 827.843 158.301 827.416C158.738 826.989 158.957 826.339 158.957 825.464L158.957 824.28C158.957 823.405 158.738 822.755 158.301 822.328C157.864 821.901 157.298 821.688 156.605 821.688C155.912 821.688 155.346 821.901 154.909 822.328C154.472 822.755 154.253 823.405 154.253 824.28L154.253 825.464C154.253 826.339 154.472 826.989 154.909 827.416C155.346 827.843 155.912 828.056 156.605 828.056ZM162.438 817.16L163.718 817.16L163.718 822.088L163.782 822.088C163.995 821.565 164.305 821.181 164.71 820.936C165.126 820.68 165.622 820.552 166.198 820.552C166.71 820.552 167.174 820.653 167.59 820.856C168.006 821.059 168.358 821.347 168.646 821.72C168.945 822.093 169.169 822.547 169.318 823.08C169.478 823.613 169.558 824.211 169.558 824.872C169.558 825.533 169.478 826.131 169.318 826.664C169.169 827.197 168.945 827.651 168.646 828.024C168.358 828.397 168.006 828.685 167.59 828.888C167.174 829.091 166.71 829.192 166.198 829.192C165.078 829.192 164.273 828.68 163.782 827.656L163.718 827.656L163.718 829L162.438 829L162.438 817.16ZM165.846 828.04C166.571 828.04 167.142 827.816 167.558 827.368C167.974 826.909 168.182 826.312 168.182 825.576L168.182 824.168C168.182 823.432 167.974 822.84 167.558 822.392C167.142 821.933 166.571 821.704 165.846 821.704C165.558 821.704 165.281 821.747 165.014 821.832C164.758 821.907 164.534 822.013 164.342 822.152C164.15 822.291 163.995 822.461 163.878 822.664C163.771 822.856 163.718 823.064 163.718 823.288L163.718 826.36C163.718 826.627 163.771 826.867 163.878 827.08C163.995 827.283 164.15 827.459 164.342 827.608C164.534 827.747 164.758 827.853 165.014 827.928C165.281 828.003 165.558 828.04 165.846 828.04ZM6.752 839.832L6.752 848.104C6.752 848.573 6.672 849 6.512 849.384C6.36267 849.768 6.144 850.093 5.856 850.36C5.57867 850.627 5.24267 850.835 4.848 850.984C4.45333 851.123 4.02133 851.192 3.552 851.192C2.688 851.192 1.98933 850.963 1.456 850.504C0.933333 850.035 0.597333 849.416 0.448 848.648L1.664 848.36C1.77067 848.84 1.97333 849.235 2.272 849.544C2.57067 849.843 3.008 849.992 3.584 849.992C4.16 849.992 4.608 849.816 4.928 849.464C5.248 849.112 5.408 848.579 5.408 847.864L5.408 841.016L1.568 841.016L1.568 839.832L6.752 839.832ZM12.6362 851.192C12.0816 851.192 11.5749 851.091 11.1162 850.888C10.6576 850.685 10.2629 850.397 9.93225 850.024C9.61225 849.64 9.36158 849.187 9.18025 848.664C8.99892 848.131 8.90825 847.533 8.90825 846.872C8.90825 846.221 8.99892 845.629 9.18025 845.096C9.36158 844.563 9.61225 844.109 9.93225 843.736C10.2629 843.352 10.6576 843.059 11.1162 842.856C11.5749 842.653 12.0816 842.552 12.6362 842.552C13.1909 842.552 13.6922 842.653 14.1402 842.856C14.5989 843.059 14.9936 843.352 15.3242 843.736C15.6549 844.109 15.9109 844.563 16.0923 845.096C16.2736 845.629 16.3642 846.221 16.3642 846.872C16.3642 847.533 16.2736 848.131 16.0923 848.664C15.9109 849.187 15.6549 849.64 15.3242 850.024C14.9936 850.397 14.5989 850.685 14.1402 850.888C13.6922 851.091 13.1909 851.192 12.6362 851.192ZM12.6362 850.056C13.3296 850.056 13.8949 849.843 14.3322 849.416C14.7696 848.989 14.9882 848.339 14.9882 847.464L14.9882 846.28C14.9882 845.405 14.7696 844.755 14.3322 844.328C13.8949 843.901 13.3296 843.688 12.6362 843.688C11.9429 843.688 11.3776 843.901 10.9402 844.328C10.5029 844.755 10.2842 845.405 10.2842 846.28L10.2842 847.464C10.2842 848.339 10.5029 848.989 10.9402 849.416C11.3776 849.843 11.9429 850.056 12.6362 850.056ZM18.4694 851L18.4694 842.744L19.7494 842.744L19.7494 844.088L19.8134 844.088C20.016 843.619 20.2987 843.245 20.6614 842.968C21.0347 842.691 21.5307 842.552 22.1494 842.552C23.0027 842.552 23.6747 842.829 24.1654 843.384C24.6667 843.928 24.9174 844.701 24.9174 845.704L24.9174 851L23.6374 851L23.6374 845.928C23.6374 844.445 23.0134 843.704 21.7654 843.704C21.5094 843.704 21.2587 843.736 21.0134 843.8C20.7787 843.864 20.5654 843.96 20.3734 844.088C20.1814 844.216 20.0267 844.381 19.9094 844.584C19.8027 844.776 19.7494 845.005 19.7494 845.272L19.7494 851L18.4694 851ZM30.6671 851.192C30.1018 851.192 29.5898 851.091 29.1311 850.888C28.6831 850.685 28.2938 850.397 27.9631 850.024C27.6431 849.64 27.3925 849.187 27.2111 848.664C27.0405 848.131 26.9551 847.533 26.9551 846.872C26.9551 846.221 27.0405 845.629 27.2111 845.096C27.3925 844.563 27.6431 844.109 27.9631 843.736C28.2938 843.352 28.6831 843.059 29.1311 842.856C29.5898 842.653 30.1018 842.552 30.6671 842.552C31.2218 842.552 31.7178 842.653 32.1551 842.856C32.5925 843.059 32.9658 843.341 33.2751 843.704C33.5845 844.056 33.8191 844.477 33.9791 844.968C34.1498 845.459 34.2351 845.997 34.2351 846.584L34.2351 847.192L28.2991 847.192L28.2991 847.576C28.2991 847.928 28.3525 848.259 28.4591 848.568C28.5765 848.867 28.7365 849.128 28.9391 849.352C29.1525 849.576 29.4085 849.752 29.7071 849.88C30.0165 850.008 30.3631 850.072 30.7471 850.072C31.2698 850.072 31.7231 849.949 32.1071 849.704C32.5018 849.459 32.8058 849.107 33.0191 848.648L33.9311 849.304C33.6645 849.869 33.2485 850.328 32.6831 850.68C32.1178 851.021 31.4458 851.192 30.6671 851.192ZM30.6671 843.624C30.3151 843.624 29.9951 843.688 29.7071 843.816C29.4191 843.933 29.1685 844.104 28.9551 844.328C28.7525 844.552 28.5925 844.819 28.4751 845.128C28.3578 845.427 28.2991 845.757 28.2991 846.12L28.2991 846.232L32.8591 846.232L32.8591 846.056C32.8591 845.32 32.6565 844.733 32.2511 844.296C31.8565 843.848 31.3285 843.624 30.6671 843.624ZM38.8244 851.192C38.0564 851.192 37.411 851.048 36.8884 850.76C36.3764 850.461 35.9337 850.067 35.5604 849.576L36.4724 848.84C36.7924 849.245 37.1497 849.56 37.5444 849.784C37.939 849.997 38.3977 850.104 38.9204 850.104C39.4644 850.104 39.8857 849.987 40.1844 849.752C40.4937 849.517 40.6484 849.187 40.6484 848.76C40.6484 848.44 40.5417 848.168 40.3284 847.944C40.1257 847.709 39.7524 847.549 39.2084 847.464L38.5524 847.368C38.1684 847.315 37.8164 847.235 37.4964 847.128C37.1764 847.011 36.8937 846.861 36.6484 846.68C36.4137 846.488 36.227 846.253 36.0884 845.976C35.9604 845.699 35.8964 845.368 35.8964 844.984C35.8964 844.579 35.971 844.227 36.1204 843.928C36.2697 843.619 36.4724 843.363 36.7284 843.16C36.995 842.957 37.3097 842.808 37.6724 842.712C38.035 842.605 38.4244 842.552 38.8404 842.552C39.5124 842.552 40.0724 842.669 40.5204 842.904C40.979 843.139 41.379 843.464 41.7204 843.88L40.8724 844.648C40.691 844.392 40.4244 844.163 40.0724 843.96C39.7204 843.747 39.2777 843.64 38.7444 843.64C38.211 843.64 37.8057 843.757 37.5284 843.992C37.2617 844.216 37.1284 844.525 37.1284 844.92C37.1284 845.325 37.2617 845.619 37.5284 845.8C37.8057 845.981 38.2004 846.115 38.7124 846.2L39.3524 846.296C40.2697 846.435 40.9204 846.701 41.3044 847.096C41.6884 847.48 41.8804 847.987 41.8804 848.616C41.8804 849.416 41.6084 850.045 41.0644 850.504C40.5204 850.963 39.7737 851.192 38.8244 851.192ZM44.8791 851.192C44.5378 851.192 44.2871 851.107 44.1271 850.936C43.9778 850.765 43.9031 850.541 43.9031 850.264L43.9031 850.056C43.9031 849.779 43.9778 849.555 44.1271 849.384C44.2871 849.213 44.5378 849.128 44.8791 849.128C45.2205 849.128 45.4658 849.213 45.6151 849.384C45.7751 849.555 45.8551 849.779 45.8551 850.056L45.8551 850.264C45.8551 850.541 45.7751 850.765 45.6151 850.936C45.4658 851.107 45.2205 851.192 44.8791 851.192ZM59.3238 851L58.2037 847.704L53.6917 847.704L52.5717 851L51.2117 851L55.1158 839.832L56.8277 839.832L60.7318 851L59.3238 851ZM55.9797 841.08L55.8997 841.08L54.0117 846.52L57.8677 846.52L55.9797 841.08ZM63.8137 851C63.3657 851 63.0244 850.877 62.7897 850.632C62.5657 850.376 62.4537 850.056 62.4537 849.672L62.4537 839.16L63.7337 839.16L63.7337 849.88L64.9497 849.88L64.9497 851L63.8137 851ZM68.095 851C67.647 851 67.3057 850.877 67.071 850.632C66.847 850.376 66.735 850.056 66.735 849.672L66.735 839.16L68.015 839.16L68.015 849.88L69.231 849.88L69.231 851L68.095 851ZM74.8756 851L74.8756 842.744L76.1556 842.744L76.1556 844.264L76.2356 844.264C76.385 843.869 76.6516 843.517 77.0356 843.208C77.4196 842.899 77.9476 842.744 78.6196 842.744L79.1156 842.744L79.1156 844.024L78.3636 844.024C77.6703 844.024 77.1263 844.157 76.7316 844.424C76.3476 844.68 76.1556 845.005 76.1556 845.4L76.1556 851L74.8756 851ZM81.3906 840.808C81.1133 840.808 80.9106 840.744 80.7826 840.616C80.6653 840.477 80.6066 840.301 80.6066 840.088L80.6066 839.88C80.6066 839.667 80.6653 839.496 80.7826 839.368C80.9106 839.229 81.1133 839.16 81.3906 839.16C81.668 839.16 81.8653 839.229 81.9826 839.368C82.1106 839.496 82.1746 839.667 82.1746 839.88L82.1746 840.088C82.1746 840.301 82.1106 840.477 81.9826 840.616C81.8653 840.744 81.668 840.808 81.3906 840.808ZM80.7506 842.744L82.0306 842.744L82.0306 851L80.7506 851L80.7506 842.744ZM91.7106 851.912C91.7106 852.765 91.3746 853.389 90.7026 853.784C90.0413 854.189 89.044 854.392 87.7106 854.392C86.42 854.392 85.492 854.216 84.9266 853.864C84.3613 853.512 84.0786 853.011 84.0786 852.36C84.0786 851.912 84.196 851.56 84.4306 851.304C84.6653 851.059 84.9853 850.877 85.3906 850.76L85.3906 850.584C84.9 850.349 84.6546 849.965 84.6546 849.432C84.6546 849.016 84.788 848.701 85.0546 848.488C85.3213 848.264 85.6626 848.099 86.0786 847.992L86.0786 847.928C85.588 847.693 85.204 847.357 84.9266 846.92C84.66 846.483 84.5266 845.976 84.5266 845.4C84.5266 844.984 84.6013 844.6 84.7506 844.248C84.9 843.896 85.108 843.597 85.3746 843.352C85.652 843.096 85.9773 842.899 86.3506 842.76C86.7346 842.621 87.1613 842.552 87.6306 842.552C88.2173 842.552 88.74 842.659 89.1986 842.872L89.1986 842.728C89.1986 842.408 89.2733 842.147 89.4226 841.944C89.572 841.731 89.8173 841.624 90.1586 841.624L91.3906 841.624L91.3906 842.744L89.8226 842.744L89.8226 843.272C90.1213 843.528 90.3506 843.837 90.5106 844.2C90.6813 844.552 90.7666 844.952 90.7666 845.4C90.7666 845.816 90.692 846.2 90.5426 846.552C90.3933 846.904 90.18 847.208 89.9026 847.464C89.636 847.709 89.3106 847.901 88.9266 848.04C88.5426 848.179 88.116 848.248 87.6466 848.248C87.38 848.248 87.1133 848.221 86.8466 848.168C86.5693 848.243 86.3186 848.355 86.0946 848.504C85.8706 848.643 85.7586 848.84 85.7586 849.096C85.7586 849.341 85.876 849.507 86.1106 849.592C86.3453 849.677 86.6493 849.72 87.0226 849.72L88.7826 849.72C89.8066 849.72 90.548 849.917 91.0066 850.312C91.476 850.696 91.7106 851.229 91.7106 851.912ZM90.5106 852.008C90.5106 851.677 90.3826 851.411 90.1266 851.208C89.8813 851.016 89.4386 850.92 88.7986 850.92L86.0466 850.92C85.5346 851.155 85.2786 851.528 85.2786 852.04C85.2786 852.403 85.412 852.712 85.6786 852.968C85.956 853.224 86.42 853.352 87.0706 853.352L88.2546 853.352C88.9693 853.352 89.524 853.24 89.9186 853.016C90.3133 852.792 90.5106 852.456 90.5106 852.008ZM87.6466 847.224C88.1906 847.224 88.6226 847.096 88.9426 846.84C89.2626 846.573 89.4226 846.168 89.4226 845.624L89.4226 845.176C89.4226 844.632 89.2626 844.232 88.9426 843.976C88.6226 843.709 88.1906 843.576 87.6466 843.576C87.1026 843.576 86.6706 843.709 86.3506 843.976C86.0306 844.232 85.8706 844.632 85.8706 845.176L85.8706 845.624C85.8706 846.168 86.0306 846.573 86.3506 846.84C86.6706 847.096 87.1026 847.224 87.6466 847.224ZM93.2037 839.16L94.4837 839.16L94.4837 844.088L94.5477 844.088C94.7504 843.619 95.0331 843.245 95.3957 842.968C95.7691 842.691 96.2651 842.552 96.8838 842.552C97.7371 842.552 98.4091 842.829 98.8997 843.384C99.4011 843.928 99.6518 844.701 99.6518 845.704L99.6518 851L98.3717 851L98.3718 845.928C98.3718 844.445 97.7477 843.704 96.4997 843.704C96.2437 843.704 95.9931 843.736 95.7477 843.8C95.5131 843.864 95.2997 843.96 95.1077 844.088C94.9157 844.216 94.7611 844.381 94.6437 844.584C94.5371 844.776 94.4837 845.005 94.4837 845.272L94.4837 851L93.2037 851L93.2037 839.16ZM104.121 851C103.673 851 103.332 850.877 103.097 850.632C102.873 850.376 102.761 850.045 102.761 849.64L102.761 843.864L101.401 843.864L101.401 842.744L102.169 842.744C102.447 842.744 102.633 842.691 102.729 842.584C102.836 842.467 102.889 842.269 102.889 841.992L102.889 840.456L104.041 840.456L104.041 842.744L105.849 842.744L105.849 843.864L104.041 843.864L104.041 849.88L105.722 849.88L105.722 851L104.121 851ZM111.688 851L111.688 842.744L112.968 842.744L112.968 844.264L113.048 844.264C113.197 843.869 113.464 843.517 113.848 843.208C114.232 842.899 114.76 842.744 115.432 842.744L115.928 842.744L115.928 844.024L115.176 844.024C114.483 844.024 113.939 844.157 113.544 844.424C113.16 844.68 112.968 845.005 112.968 845.4L112.968 851L111.688 851ZM120.589 851.192C120.024 851.192 119.512 851.091 119.053 850.888C118.605 850.685 118.216 850.397 117.885 850.024C117.565 849.64 117.314 849.187 117.133 848.664C116.962 848.131 116.877 847.533 116.877 846.872C116.877 846.221 116.962 845.629 117.133 845.096C117.314 844.563 117.565 844.109 117.885 843.736C118.216 843.352 118.605 843.059 119.053 842.856C119.512 842.653 120.024 842.552 120.589 842.552C121.144 842.552 121.64 842.653 122.077 842.856C122.514 843.059 122.888 843.341 123.197 843.704C123.506 844.056 123.741 844.477 123.901 844.968C124.072 845.459 124.157 845.997 124.157 846.584L124.157 847.192L118.221 847.192L118.221 847.576C118.221 847.928 118.274 848.259 118.381 848.568C118.498 848.867 118.658 849.128 118.861 849.352C119.074 849.576 119.33 849.752 119.629 849.88C119.938 850.008 120.285 850.072 120.669 850.072C121.192 850.072 121.645 849.949 122.029 849.704C122.424 849.459 122.728 849.107 122.941 848.648L123.853 849.304C123.586 849.869 123.17 850.328 122.605 850.68C122.04 851.021 121.368 851.192 120.589 851.192ZM120.589 843.624C120.237 843.624 119.917 843.688 119.629 843.816C119.341 843.933 119.09 844.104 118.877 844.328C118.674 844.552 118.514 844.819 118.397 845.128C118.28 845.427 118.221 845.757 118.221 846.12L118.221 846.232L122.781 846.232L122.781 846.056C122.781 845.32 122.578 844.733 122.173 844.296C121.778 843.848 121.25 843.624 120.589 843.624ZM128.746 851.192C127.978 851.192 127.333 851.048 126.81 850.76C126.298 850.461 125.856 850.067 125.482 849.576L126.394 848.84C126.714 849.245 127.072 849.56 127.466 849.784C127.861 849.997 128.32 850.104 128.842 850.104C129.386 850.104 129.808 849.987 130.106 849.752C130.416 849.517 130.57 849.187 130.57 848.76C130.57 848.44 130.464 848.168 130.25 847.944C130.048 847.709 129.674 847.549 129.13 847.464L128.474 847.368C128.09 847.315 127.738 847.235 127.418 847.128C127.098 847.011 126.816 846.861 126.57 846.68C126.336 846.488 126.149 846.253 126.01 845.976C125.882 845.699 125.818 845.368 125.818 844.984C125.818 844.579 125.893 844.227 126.042 843.928C126.192 843.619 126.394 843.363 126.65 843.16C126.917 842.957 127.232 842.808 127.594 842.712C127.957 842.605 128.346 842.552 128.762 842.552C129.434 842.552 129.994 842.669 130.442 842.904C130.901 843.139 131.301 843.464 131.642 843.88L130.794 844.648C130.613 844.392 130.346 844.163 129.994 843.96C129.642 843.747 129.2 843.64 128.666 843.64C128.133 843.64 127.728 843.757 127.45 843.992C127.184 844.216 127.05 844.525 127.05 844.92C127.05 845.325 127.184 845.619 127.45 845.8C127.728 845.981 128.122 846.115 128.634 846.2L129.274 846.296C130.192 846.435 130.842 846.701 131.226 847.096C131.61 847.48 131.802 847.987 131.802 848.616C131.802 849.416 131.53 850.045 130.986 850.504C130.442 850.963 129.696 851.192 128.746 851.192ZM137.167 851.192C136.602 851.192 136.09 851.091 135.631 850.888C135.183 850.685 134.794 850.397 134.463 850.024C134.143 849.64 133.892 849.187 133.711 848.664C133.54 848.131 133.455 847.533 133.455 846.872C133.455 846.221 133.54 845.629 133.711 845.096C133.892 844.563 134.143 844.109 134.463 843.736C134.794 843.352 135.183 843.059 135.631 842.856C136.09 842.653 136.602 842.552 137.167 842.552C137.722 842.552 138.218 842.653 138.655 842.856C139.092 843.059 139.466 843.341 139.775 843.704C140.084 844.056 140.319 844.477 140.479 844.968C140.65 845.459 140.735 845.997 140.735 846.584L140.735 847.192L134.799 847.192L134.799 847.576C134.799 847.928 134.852 848.259 134.959 848.568C135.076 848.867 135.236 849.128 135.439 849.352C135.652 849.576 135.908 849.752 136.207 849.88C136.516 850.008 136.863 850.072 137.247 850.072C137.77 850.072 138.223 849.949 138.607 849.704C139.002 849.459 139.306 849.107 139.519 848.648L140.431 849.304C140.164 849.869 139.748 850.328 139.183 850.68C138.618 851.021 137.946 851.192 137.167 851.192ZM137.167 843.624C136.815 843.624 136.495 843.688 136.207 843.816C135.919 843.933 135.668 844.104 135.455 844.328C135.252 844.552 135.092 844.819 134.975 845.128C134.858 845.427 134.799 845.757 134.799 846.12L134.799 846.232L139.359 846.232L139.359 846.056C139.359 845.32 139.156 844.733 138.751 844.296C138.356 843.848 137.828 843.624 137.167 843.624ZM142.844 851L142.844 842.744L144.124 842.744L144.124 844.264L144.204 844.264C144.354 843.869 144.62 843.517 145.004 843.208C145.388 842.899 145.916 842.744 146.588 842.744L147.084 842.744L147.084 844.024L146.332 844.024C145.639 844.024 145.095 844.157 144.7 844.424C144.316 844.68 144.124 845.005 144.124 845.4L144.124 851L142.844 851ZM150.7 851L147.804 842.744L149.084 842.744L150.524 846.84L151.42 849.656L151.5 849.656L152.396 846.84L153.868 842.744L155.1 842.744L152.188 851L150.7 851ZM159.73 851.192C159.164 851.192 158.652 851.091 158.194 850.888C157.746 850.685 157.356 850.397 157.026 850.024C156.706 849.64 156.455 849.187 156.274 848.664C156.103 848.131 156.018 847.533 156.018 846.872C156.018 846.221 156.103 845.629 156.274 845.096C156.455 844.563 156.706 844.109 157.026 843.736C157.356 843.352 157.746 843.059 158.194 842.856C158.652 842.653 159.164 842.552 159.73 842.552C160.284 842.552 160.78 842.653 161.218 842.856C161.655 843.059 162.028 843.341 162.338 843.704C162.647 844.056 162.882 844.477 163.042 844.968C163.212 845.459 163.298 845.997 163.298 846.584L163.298 847.192L157.362 847.192L157.362 847.576C157.362 847.928 157.415 848.259 157.522 848.568C157.639 848.867 157.799 849.128 158.002 849.352C158.215 849.576 158.471 849.752 158.77 849.88C159.079 850.008 159.426 850.072 159.81 850.072C160.332 850.072 160.786 849.949 161.17 849.704C161.564 849.459 161.868 849.107 162.082 848.648L162.994 849.304C162.727 849.869 162.311 850.328 161.746 850.68C161.18 851.021 160.508 851.192 159.73 851.192ZM159.73 843.624C159.378 843.624 159.058 843.688 158.77 843.816C158.482 843.933 158.231 844.104 158.018 844.328C157.815 844.552 157.655 844.819 157.538 845.128C157.42 845.427 157.362 845.757 157.362 846.12L157.362 846.232L161.922 846.232L161.922 846.056C161.922 845.32 161.719 844.733 161.314 844.296C160.919 843.848 160.391 843.624 159.73 843.624ZM170.687 849.656L170.623 849.656C170.122 850.68 169.316 851.192 168.207 851.192C167.695 851.192 167.231 851.091 166.815 850.888C166.399 850.685 166.042 850.397 165.743 850.024C165.455 849.651 165.231 849.197 165.071 848.664C164.922 848.131 164.847 847.533 164.847 846.872C164.847 846.211 164.922 845.613 165.071 845.08C165.231 844.547 165.455 844.093 165.743 843.72C166.042 843.347 166.399 843.059 166.815 842.856C167.231 842.653 167.695 842.552 168.207 842.552C168.783 842.552 169.274 842.68 169.679 842.936C170.095 843.181 170.41 843.565 170.623 844.088L170.687 844.088L170.687 839.16L171.967 839.16L171.967 851L170.687 851L170.687 849.656ZM168.559 850.04C168.847 850.04 169.119 850.003 169.375 849.928C169.642 849.853 169.871 849.747 170.063 849.608C170.255 849.459 170.404 849.283 170.511 849.08C170.628 848.867 170.687 848.627 170.687 848.36L170.687 845.288C170.687 845.064 170.628 844.856 170.511 844.664C170.404 844.461 170.255 844.291 170.063 844.152C169.871 844.013 169.642 843.907 169.375 843.832C169.119 843.747 168.847 843.704 168.559 843.704C167.834 843.704 167.263 843.933 166.847 844.392C166.431 844.84 166.223 845.432 166.223 846.168L166.223 847.576C166.223 848.312 166.431 848.909 166.847 849.368C167.263 849.816 167.834 850.04 168.559 850.04ZM175.504 851.192C175.163 851.192 174.912 851.107 174.752 850.936C174.603 850.765 174.528 850.541 174.528 850.264L174.528 850.056C174.528 849.779 174.603 849.555 174.752 849.384C174.912 849.213 175.163 849.128 175.504 849.128C175.845 849.128 176.091 849.213 176.24 849.384C176.4 849.555 176.48 849.779 176.48 850.056L176.48 850.264C176.48 850.541 176.4 850.765 176.24 850.936C176.091 851.107 175.845 851.192 175.504 851.192Z" fill="white"/>
<circle cx="20" cy="658" r="20" fill="white"/>
<path d="M23.364 651.926H28.8537V653.276H23.364V651.926ZM17.8633 657.268C19.0768 656.679 19.7124 655.784 19.7124 654.4C19.7124 651.664 17.7037 651 15.384 651H9V664.735H15.5629C18.0229 664.735 20.3316 663.536 20.3316 660.746C20.3316 659.022 19.5281 657.748 17.8633 657.268ZM11.9774 653.343H14.7704C15.8463 653.343 16.8121 653.647 16.8121 654.914C16.8121 656.079 16.0609 656.548 14.996 656.548H11.9774V653.343ZM15.1556 662.403H11.9746V658.621H15.2189C16.5287 658.621 17.357 659.176 17.357 660.582C17.357 661.965 16.3691 662.403 15.1556 662.403ZM31 659.907C31 656.964 29.3022 654.512 26.2313 654.512C23.2457 654.512 21.2149 656.791 21.2149 659.778C21.2149 662.874 23.1383 665 26.2313 665C28.573 665 30.0892 663.932 30.8184 661.653H28.4437C28.185 662.503 27.1338 662.95 26.3166 662.95C24.7371 662.95 23.9116 662.013 23.9116 660.42H30.9807C30.989 660.255 31 660.082 31 659.907ZM23.9116 658.696C23.9969 657.388 24.8582 656.57 26.146 656.57C27.4998 656.57 28.1767 657.377 28.2951 658.696H23.9116Z" fill="#141313"/>
<circle cx="20" cy="710" r="20" fill="white"/>
<path d="M28.66 704.98C27.766 703.447 26.553 702.233 25.019 701.34C23.486 700.447 21.813 700 20 700C18.187 700 16.514 700.447 14.98 701.34C13.447 702.233 12.233 703.447 11.34 704.98C10.447 706.513 10 708.187 10 710C10 711.813 10.446 713.487 11.34 715.02C12.234 716.554 13.447 717.767 14.981 718.66C16.514 719.553 18.187 720 20 720C21.813 720 23.486 719.553 25.02 718.66C26.553 717.767 27.767 716.554 28.661 715.02C29.554 713.487 30 711.813 30 710C30 708.187 29.554 706.513 28.66 704.98ZM20 701.66C22 701.66 23.772 702.3 25.32 703.579C24.4 704.753 23.034 705.719 21.22 706.479C20.218 704.666 19.132 703.152 17.959 701.939C18.641 701.753 19.319 701.66 20 701.66ZM13.51 704.8C14.264 703.853 15.166 703.114 16.221 702.58C17.433 703.781 18.546 705.28 19.561 707.08C17.561 707.68 15.447 707.98 13.22 707.98C12.647 707.98 12.214 707.967 11.92 707.94C12.227 706.793 12.757 705.747 13.51 704.8ZM11.66 710C11.66 709.946 11.663 709.88 11.67 709.8C11.677 709.72 11.68 709.654 11.68 709.6C11.934 709.614 12.321 709.62 12.841 709.62C15.507 709.62 17.987 709.253 20.28 708.52C20.467 708.893 20.661 709.313 20.86 709.78C19.54 710.073 18.186 710.786 16.799 711.92C15.412 713.054 14.4 714.247 13.76 715.5C12.36 713.913 11.66 712.08 11.66 710ZM20 718.34C18.106 718.34 16.406 717.753 14.899 716.581C15.5 715.394 16.423 714.259 17.67 713.18C18.916 712.1 20.153 711.427 21.38 711.16C22.152 713.293 22.673 715.499 22.94 717.78C21.966 718.153 20.986 718.34 20 718.34ZM27.08 714.38C26.414 715.446 25.554 716.32 24.5 717.001C24.26 714.921 23.8 712.894 23.121 710.92C24.053 710.854 24.886 710.82 25.621 710.82C26.42 710.82 27.307 710.854 28.28 710.92C28.146 712.16 27.746 713.313 27.08 714.38ZM25.84 709.38C24.68 709.38 23.607 709.427 22.62 709.52C22.366 708.867 22.14 708.327 21.94 707.9C24.006 706.994 25.472 705.894 26.339 704.6C27.539 706.014 28.193 707.627 28.299 709.44C27.487 709.4 26.667 709.38 25.84 709.38Z" fill="#141313"/>
<circle cx="20" cy="762" r="20" fill="white"/>
<path d="M29.9802 757.507C29.9326 756.417 29.7581 755.667 29.5081 755.017C29.2501 754.327 28.8533 753.71 28.3334 753.196C27.8254 752.675 27.2103 752.27 26.5357 752.013C25.8889 751.761 25.1508 751.584 24.0714 751.536C22.984 751.484 22.6387 751.472 19.8807 751.472C17.1227 751.472 16.7775 751.484 15.6941 751.532C14.6147 751.58 13.8727 751.757 13.2298 752.009C12.5471 752.27 11.9361 752.671 11.4281 753.196C10.9122 753.71 10.5115 754.331 10.2574 755.013C10.0074 755.667 9.83283 756.413 9.78524 757.503C9.73362 758.602 9.72168 758.951 9.72168 761.738C9.72168 764.525 9.73362 764.874 9.78121 765.969C9.82879 767.06 10.0035 767.809 10.2535 768.459C10.5115 769.149 10.9122 769.766 11.4281 770.28C11.9361 770.801 12.5512 771.206 13.2258 771.463C13.8727 771.715 14.6107 771.892 15.6902 771.94C16.7735 771.988 17.1188 772 19.8768 772C22.6349 772 22.9801 771.988 24.0635 771.94C25.1428 771.892 25.8849 771.715 26.5278 771.463C27.893 770.929 28.9723 769.839 29.5002 768.459C29.75 767.805 29.9247 767.06 29.9723 765.969C30.0199 764.874 30.0319 764.525 30.0319 761.738C30.0319 758.951 30.0278 758.602 29.9802 757.507ZM28.1509 765.889C28.1072 766.891 27.9406 767.432 27.8017 767.793C27.4603 768.688 26.7579 769.397 25.873 769.742C25.5158 769.883 24.9762 770.051 23.988 770.095C22.9165 770.143 22.5952 770.155 19.8848 770.155C17.1743 770.155 16.8489 770.143 15.7814 770.095C14.7893 770.051 14.2535 769.883 13.8964 769.742C13.456 769.578 13.0551 769.317 12.7297 768.976C12.3924 768.644 12.1345 768.243 11.9717 767.797C11.8328 767.437 11.6662 766.891 11.6226 765.893C11.5749 764.81 11.5631 764.485 11.5631 761.746C11.5631 759.007 11.5749 758.678 11.6226 757.6C11.6662 756.597 11.8328 756.056 11.9717 755.695C12.1345 755.25 12.3924 754.845 12.7338 754.516C13.063 754.175 13.4599 753.914 13.9004 753.75C14.2576 753.61 14.7973 753.441 15.7854 753.397C16.8569 753.349 17.1784 753.337 19.8886 753.337C22.6031 753.337 22.9244 753.349 23.992 753.397C24.9841 753.441 25.5198 753.61 25.877 753.75C26.3174 753.914 26.7183 754.175 27.0436 754.516C27.381 754.849 27.6389 755.25 27.8017 755.695C27.9406 756.056 28.1072 756.601 28.1509 757.6C28.1985 758.682 28.2104 759.007 28.2104 761.746C28.2104 764.485 28.1985 764.806 28.1509 765.889Z" fill="#141313"/>
<path d="M19.8791 756.465C16.9981 756.465 14.6606 758.827 14.6606 761.738C14.6606 764.65 16.9981 767.012 19.8791 767.012C22.7602 767.012 25.0975 764.65 25.0975 761.738C25.0975 758.827 22.7602 756.465 19.8791 756.465ZM19.8791 765.159C18.01 765.159 16.494 763.627 16.494 761.738C16.494 759.849 18.01 758.318 19.8791 758.318C21.7482 758.318 23.2641 759.849 23.2641 761.738C23.2641 763.627 21.7482 765.159 19.8791 765.159Z" fill="#141313"/>
<path d="M26.5241 756.256C26.5241 756.936 25.9787 757.487 25.3059 757.487C24.6333 757.487 24.0879 756.936 24.0879 756.256C24.0879 755.576 24.6333 755.025 25.3059 755.025C25.9787 755.025 26.5241 755.576 26.5241 756.256Z" fill="#141313"/>
<path d="M0 157L65 157" stroke="url(#paint0_linear_1_596)" stroke-width="4"/>
<path d="M10.2574 157.28H4.93742V163H1.89742V149.04H4.93742V154.6H10.2574V149.04H13.2974V163H10.2574V157.28ZM21.9701 163.24C21.0501 163.24 20.2101 163.087 19.4501 162.78C18.6901 162.473 18.0434 162.02 17.5101 161.42C16.9767 160.807 16.5634 160.053 16.2701 159.16C15.9767 158.253 15.8301 157.207 15.8301 156.02C15.8301 154.833 15.9767 153.793 16.2701 152.9C16.5634 151.993 16.9767 151.24 17.5101 150.64C18.0434 150.027 18.6901 149.567 19.4501 149.26C20.2101 148.953 21.0501 148.8 21.9701 148.8C22.8901 148.8 23.7301 148.953 24.4901 149.26C25.2501 149.567 25.8967 150.027 26.4301 150.64C26.9634 151.24 27.3767 151.993 27.6701 152.9C27.9634 153.793 28.1101 154.833 28.1101 156.02C28.1101 157.207 27.9634 158.253 27.6701 159.16C27.3767 160.053 26.9634 160.807 26.4301 161.42C25.8967 162.02 25.2501 162.473 24.4901 162.78C23.7301 163.087 22.8901 163.24 21.9701 163.24ZM21.9701 160.54C22.8901 160.54 23.6034 160.24 24.1101 159.64C24.6301 159.04 24.8901 158.18 24.8901 157.06V154.98C24.8901 153.86 24.6301 153 24.1101 152.4C23.6034 151.8 22.8901 151.5 21.9701 151.5C21.0501 151.5 20.3301 151.8 19.8101 152.4C19.3034 153 19.0501 153.86 19.0501 154.98V157.06C19.0501 158.18 19.3034 159.04 19.8101 159.64C20.3301 160.24 21.0501 160.54 21.9701 160.54ZM41.0874 153.84H41.0274L40.0074 155.88L37.2874 160.82L34.6274 155.9L33.5674 153.7H33.5074V163H30.6474V149.04H33.8674L37.2874 155.58H37.3274L40.7074 149.04H43.9474V163H41.0874V153.84ZM47.0341 163V149.04H56.5341V151.74H50.0741V154.6H55.6141V157.28H50.0741V160.3H56.5341V163H47.0341Z" fill="white"/>
<path d="M11.0805 213L9.68047 208.88H4.04047L2.64047 213H0.940469L5.82047 199.04H7.96047L12.8405 213H11.0805ZM6.90047 200.6H6.80047L4.44047 207.4H9.26047L6.90047 200.6ZM15.153 199.04H20.893C22.053 199.04 22.9596 199.367 23.613 200.02C24.2796 200.673 24.613 201.547 24.613 202.64C24.613 203.16 24.5396 203.6 24.393 203.96C24.2463 204.32 24.0596 204.62 23.833 204.86C23.6063 205.087 23.3596 205.26 23.093 205.38C22.8263 205.487 22.5796 205.56 22.353 205.6V205.72C22.6063 205.733 22.8863 205.8 23.193 205.92C23.513 206.04 23.813 206.233 24.093 206.5C24.373 206.753 24.6063 207.087 24.793 207.5C24.993 207.9 25.093 208.387 25.093 208.96C25.093 209.533 24.9996 210.067 24.813 210.56C24.6396 211.053 24.393 211.48 24.073 211.84C23.753 212.2 23.373 212.487 22.933 212.7C22.493 212.9 22.013 213 21.493 213H15.153V199.04ZM16.833 211.52H20.973C21.693 211.52 22.2596 211.34 22.673 210.98C23.0863 210.607 23.293 210.067 23.293 209.36V208.68C23.293 207.973 23.0863 207.44 22.673 207.08C22.2596 206.707 21.693 206.52 20.973 206.52H16.833V211.52ZM16.833 205.08H20.693C21.3596 205.08 21.8796 204.913 22.253 204.58C22.6263 204.247 22.813 203.767 22.813 203.14V202.46C22.813 201.833 22.6263 201.353 22.253 201.02C21.8796 200.687 21.3596 200.52 20.693 200.52H16.833V205.08ZM33.4394 213.24C32.5327 213.24 31.7127 213.087 30.9794 212.78C30.2594 212.46 29.6394 212 29.1194 211.4C28.6127 210.787 28.2194 210.033 27.9394 209.14C27.6594 208.233 27.5194 207.193 27.5194 206.02C27.5194 204.847 27.6594 203.813 27.9394 202.92C28.2194 202.027 28.6127 201.273 29.1194 200.66C29.6394 200.047 30.2594 199.587 30.9794 199.28C31.7127 198.96 32.5327 198.8 33.4394 198.8C34.3327 198.8 35.146 198.96 35.8794 199.28C36.6127 199.587 37.2327 200.047 37.7394 200.66C38.2594 201.273 38.6594 202.027 38.9394 202.92C39.2194 203.813 39.3594 204.847 39.3594 206.02C39.3594 207.193 39.2194 208.233 38.9394 209.14C38.6594 210.033 38.2594 210.787 37.7394 211.4C37.2327 212 36.6127 212.46 35.8794 212.78C35.146 213.087 34.3327 213.24 33.4394 213.24ZM33.4394 211.74C34.0394 211.74 34.5927 211.633 35.0994 211.42C35.606 211.207 36.0394 210.9 36.3994 210.5C36.7727 210.1 37.0594 209.62 37.2594 209.06C37.4594 208.5 37.5594 207.873 37.5594 207.18V204.86C37.5594 204.167 37.4594 203.54 37.2594 202.98C37.0594 202.42 36.7727 201.94 36.3994 201.54C36.0394 201.14 35.606 200.833 35.0994 200.62C34.5927 200.407 34.0394 200.3 33.4394 200.3C32.8394 200.3 32.286 200.407 31.7794 200.62C31.2727 200.833 30.8327 201.14 30.4594 201.54C30.0994 201.94 29.8194 202.42 29.6194 202.98C29.4194 203.54 29.3194 204.167 29.3194 204.86V207.18C29.3194 207.873 29.4194 208.5 29.6194 209.06C29.8194 209.62 30.0994 210.1 30.4594 210.5C30.8327 210.9 31.2727 211.207 31.7794 211.42C32.286 211.633 32.8394 211.74 33.4394 211.74ZM43.9595 199.04V207.68C43.9595 209.013 44.2062 210.027 44.6995 210.72C45.1929 211.4 46.0595 211.74 47.2995 211.74C48.5395 211.74 49.4062 211.4 49.8995 210.72C50.3929 210.027 50.6395 209.013 50.6395 207.68V199.04H52.3195V207.28C52.3195 208.293 52.2262 209.173 52.0395 209.92C51.8662 210.667 51.5795 211.287 51.1795 211.78C50.7795 212.273 50.2529 212.64 49.5995 212.88C48.9595 213.12 48.1729 213.24 47.2395 213.24C46.3062 213.24 45.5195 213.12 44.8795 212.88C44.2529 212.64 43.7462 212.273 43.3595 211.78C42.9729 211.287 42.6929 210.667 42.5195 209.92C42.3595 209.173 42.2795 208.293 42.2795 207.28V199.04H43.9595ZM60.6342 200.52V213H58.9542V200.52H54.5142V199.04H65.0742V200.52H60.6342Z" fill="white"/>
<path d="M6.04758 263.24C4.91424 263.24 3.94758 263.027 3.14758 262.6C2.34758 262.16 1.66758 261.56 1.10758 260.8L2.34758 259.76C2.84091 260.413 3.38758 260.913 3.98758 261.26C4.58758 261.593 5.29425 261.76 6.10758 261.76C7.10758 261.76 7.86758 261.52 8.38758 261.04C8.92091 260.56 9.18758 259.92 9.18758 259.12C9.18758 258.453 8.98758 257.94 8.58758 257.58C8.18758 257.22 7.52758 256.933 6.60758 256.72L5.46758 256.46C4.18758 256.167 3.20758 255.727 2.52758 255.14C1.86091 254.54 1.52758 253.7 1.52758 252.62C1.52758 252.007 1.64091 251.46 1.86758 250.98C2.09424 250.5 2.40758 250.1 2.80758 249.78C3.22091 249.46 3.70758 249.22 4.26758 249.06C4.84091 248.887 5.46758 248.8 6.14758 248.8C7.20091 248.8 8.10091 248.993 8.84758 249.38C9.60758 249.767 10.2476 250.333 10.7676 251.08L9.50758 252C9.12091 251.467 8.65425 251.047 8.10758 250.74C7.56091 250.433 6.88091 250.28 6.06758 250.28C5.17424 250.28 4.46758 250.473 3.94758 250.86C3.44091 251.233 3.18758 251.8 3.18758 252.56C3.18758 253.227 3.40091 253.733 3.82758 254.08C4.26758 254.413 4.92758 254.68 5.80758 254.88L6.94758 255.14C8.32091 255.447 9.31424 255.913 9.92758 256.54C10.5409 257.167 10.8476 258 10.8476 259.04C10.8476 259.68 10.7342 260.26 10.5076 260.78C10.2942 261.3 9.98091 261.74 9.56758 262.1C9.15425 262.46 8.64758 262.74 8.04758 262.94C7.46091 263.14 6.79425 263.24 6.04758 263.24ZM13.7487 263V249.04H22.2687V250.52H15.4287V255.2H21.8687V256.68H15.4287V261.52H22.2687V263H13.7487ZM27.0888 263H25.4088V249.04H30.9688C32.1955 249.04 33.1488 249.38 33.8288 250.06C34.5222 250.74 34.8688 251.72 34.8688 253C34.8688 254.027 34.6288 254.873 34.1488 255.54C33.6822 256.193 32.9888 256.627 32.0688 256.84L35.2688 263H33.3688L30.3488 257H27.0888V263ZM30.9688 255.56C31.6355 255.56 32.1488 255.387 32.5088 255.04C32.8822 254.693 33.0688 254.2 33.0688 253.56V252.52C33.0688 251.88 32.8822 251.387 32.5088 251.04C32.1488 250.693 31.6355 250.52 30.9688 250.52H27.0888V255.56H30.9688ZM40.874 263L36.234 249.04H38.034L40.334 256.08L41.874 261.32H41.974L43.554 256.08L45.874 249.04H47.614L42.914 263H40.874ZM49.2215 263V261.6H51.1815V250.44H49.2215V249.04H54.8215V250.44H52.8615V261.6H54.8215V263H49.2215ZM62.8093 263.24C61.036 263.24 59.656 262.64 58.6693 261.44C57.6826 260.227 57.1893 258.447 57.1893 256.1C57.1893 253.753 57.6826 251.953 58.6693 250.7C59.656 249.433 61.036 248.8 62.8093 248.8C63.9826 248.8 64.9626 249.067 65.7493 249.6C66.5493 250.133 67.1693 250.887 67.6093 251.86L66.2493 252.68C65.9693 251.96 65.5426 251.387 64.9693 250.96C64.396 250.52 63.676 250.3 62.8093 250.3C62.2093 250.3 61.6693 250.413 61.1893 250.64C60.7226 250.867 60.3226 251.193 59.9893 251.62C59.6693 252.033 59.4226 252.533 59.2493 253.12C59.076 253.693 58.9893 254.34 58.9893 255.06V257.14C58.9893 258.58 59.3226 259.707 59.9893 260.52C60.656 261.333 61.596 261.74 62.8093 261.74C63.7026 261.74 64.4493 261.513 65.0493 261.06C65.6493 260.593 66.0893 259.98 66.3693 259.22L67.7093 260.06C67.2693 261.047 66.636 261.827 65.8093 262.4C64.9826 262.96 63.9826 263.24 62.8093 263.24ZM70.3112 263V249.04H78.8312V250.52H71.9912V255.2H78.4312V256.68H71.9912V261.52H78.8312V263H70.3112ZM85.8913 263.24C84.758 263.24 83.7913 263.027 82.9913 262.6C82.1913 262.16 81.5113 261.56 80.9513 260.8L82.1913 259.76C82.6847 260.413 83.2313 260.913 83.8313 261.26C84.4313 261.593 85.138 261.76 85.9513 261.76C86.9513 261.76 87.7113 261.52 88.2313 261.04C88.7647 260.56 89.0313 259.92 89.0313 259.12C89.0313 258.453 88.8313 257.94 88.4313 257.58C88.0313 257.22 87.3713 256.933 86.4513 256.72L85.3113 256.46C84.0313 256.167 83.0513 255.727 82.3713 255.14C81.7047 254.54 81.3713 253.7 81.3713 252.62C81.3713 252.007 81.4847 251.46 81.7113 250.98C81.938 250.5 82.2513 250.1 82.6513 249.78C83.0647 249.46 83.5513 249.22 84.1113 249.06C84.6847 248.887 85.3113 248.8 85.9913 248.8C87.0447 248.8 87.9447 248.993 88.6913 249.38C89.4513 249.767 90.0913 250.333 90.6113 251.08L89.3513 252C88.9647 251.467 88.498 251.047 87.9513 250.74C87.4047 250.433 86.7247 250.28 85.9113 250.28C85.018 250.28 84.3113 250.473 83.7913 250.86C83.2847 251.233 83.0313 251.8 83.0313 252.56C83.0313 253.227 83.2447 253.733 83.6713 254.08C84.1113 254.413 84.7713 254.68 85.6513 254.88L86.7913 255.14C88.1647 255.447 89.158 255.913 89.7713 256.54C90.3847 257.167 90.6913 258 90.6913 259.04C90.6913 259.68 90.578 260.26 90.3513 260.78C90.138 261.3 89.8247 261.74 89.4113 262.1C88.998 262.46 88.4913 262.74 87.8913 262.94C87.3047 263.14 86.638 263.24 85.8913 263.24Z" fill="white"/>
<path d="M3.81758 313L0.417578 299.04H2.19758L3.69758 305.76L4.85758 310.98H4.89758L6.19758 305.76L7.95758 299.04H9.87758L11.5776 305.76L12.8776 310.96H12.9376L14.1376 305.76L15.7176 299.04H17.4376L13.8576 313H11.9976L10.1776 306.04L8.89758 300.92H8.85758L7.53758 306.04L5.67758 313H3.81758ZM24.9101 313.24C24.0034 313.24 23.1834 313.087 22.4501 312.78C21.7301 312.46 21.1101 312 20.5901 311.4C20.0834 310.787 19.6901 310.033 19.4101 309.14C19.1301 308.233 18.9901 307.193 18.9901 306.02C18.9901 304.847 19.1301 303.813 19.4101 302.92C19.6901 302.027 20.0834 301.273 20.5901 300.66C21.1101 300.047 21.7301 299.587 22.4501 299.28C23.1834 298.96 24.0034 298.8 24.9101 298.8C25.8034 298.8 26.6167 298.96 27.3501 299.28C28.0834 299.587 28.7034 300.047 29.2101 300.66C29.7301 301.273 30.1301 302.027 30.4101 302.92C30.6901 303.813 30.8301 304.847 30.8301 306.02C30.8301 307.193 30.6901 308.233 30.4101 309.14C30.1301 310.033 29.7301 310.787 29.2101 311.4C28.7034 312 28.0834 312.46 27.3501 312.78C26.6167 313.087 25.8034 313.24 24.9101 313.24ZM24.9101 311.74C25.5101 311.74 26.0634 311.633 26.5701 311.42C27.0767 311.207 27.5101 310.9 27.8701 310.5C28.2434 310.1 28.5301 309.62 28.7301 309.06C28.9301 308.5 29.0301 307.873 29.0301 307.18V304.86C29.0301 304.167 28.9301 303.54 28.7301 302.98C28.5301 302.42 28.2434 301.94 27.8701 301.54C27.5101 301.14 27.0767 300.833 26.5701 300.62C26.0634 300.407 25.5101 300.3 24.9101 300.3C24.3101 300.3 23.7567 300.407 23.2501 300.62C22.7434 300.833 22.3034 301.14 21.9301 301.54C21.5701 301.94 21.2901 302.42 21.0901 302.98C20.8901 303.54 20.7901 304.167 20.7901 304.86V307.18C20.7901 307.873 20.8901 308.5 21.0901 309.06C21.2901 309.62 21.5701 310.1 21.9301 310.5C22.3034 310.9 22.7434 311.207 23.2501 311.42C23.7567 311.633 24.3101 311.74 24.9101 311.74ZM35.5302 313H33.8502V299.04H39.4102C40.6369 299.04 41.5902 299.38 42.2702 300.06C42.9636 300.74 43.3102 301.72 43.3102 303C43.3102 304.027 43.0702 304.873 42.5902 305.54C42.1236 306.193 41.4302 306.627 40.5102 306.84L43.7102 313H41.8102L38.7902 307H35.5302V313ZM39.4102 305.56C40.0769 305.56 40.5902 305.387 40.9502 305.04C41.3236 304.693 41.5102 304.2 41.5102 303.56V302.52C41.5102 301.88 41.3236 301.387 40.9502 301.04C40.5902 300.693 40.0769 300.52 39.4102 300.52H35.5302V305.56H39.4102ZM50.3032 306.14L48.3232 308.34V313H46.6432V299.04H48.3232V306.46H48.3832L50.3832 304.04L54.6032 299.04H56.6632L51.4632 305.02L57.0232 313H54.9432L50.3032 306.14ZM63.1413 313.24C62.008 313.24 61.0413 313.027 60.2413 312.6C59.4413 312.16 58.7613 311.56 58.2013 310.8L59.4413 309.76C59.9347 310.413 60.4813 310.913 61.0813 311.26C61.6813 311.593 62.388 311.76 63.2013 311.76C64.2013 311.76 64.9613 311.52 65.4813 311.04C66.0147 310.56 66.2813 309.92 66.2813 309.12C66.2813 308.453 66.0813 307.94 65.6813 307.58C65.2813 307.22 64.6213 306.933 63.7013 306.72L62.5613 306.46C61.2813 306.167 60.3013 305.727 59.6213 305.14C58.9547 304.54 58.6213 303.7 58.6213 302.62C58.6213 302.007 58.7347 301.46 58.9613 300.98C59.188 300.5 59.5013 300.1 59.9013 299.78C60.3147 299.46 60.8013 299.22 61.3613 299.06C61.9347 298.887 62.5613 298.8 63.2413 298.8C64.2947 298.8 65.1947 298.993 65.9413 299.38C66.7013 299.767 67.3413 300.333 67.8613 301.08L66.6013 302C66.2147 301.467 65.748 301.047 65.2013 300.74C64.6547 300.433 63.9747 300.28 63.1613 300.28C62.268 300.28 61.5613 300.473 61.0413 300.86C60.5347 301.233 60.2813 301.8 60.2813 302.56C60.2813 303.227 60.4947 303.733 60.9213 304.08C61.3613 304.413 62.0213 304.68 62.9013 304.88L64.0413 305.14C65.4147 305.447 66.408 305.913 67.0213 306.54C67.6347 307.167 67.9413 308 67.9413 309.04C67.9413 309.68 67.828 310.26 67.6013 310.78C67.388 311.3 67.0747 311.74 66.6613 312.1C66.248 312.46 65.7413 312.74 65.1413 312.94C64.5547 313.14 63.888 313.24 63.1413 313.24Z" fill="white"/>
<path d="M2.27602 349.04H8.01602C9.17602 349.04 10.0827 349.367 10.736 350.02C11.4027 350.673 11.736 351.547 11.736 352.64C11.736 353.16 11.6627 353.6 11.516 353.96C11.3693 354.32 11.1827 354.62 10.956 354.86C10.7293 355.087 10.4827 355.26 10.216 355.38C9.94935 355.487 9.70268 355.56 9.47602 355.6V355.72C9.72935 355.733 10.0093 355.8 10.316 355.92C10.636 356.04 10.936 356.233 11.216 356.5C11.496 356.753 11.7293 357.087 11.916 357.5C12.116 357.9 12.216 358.387 12.216 358.96C12.216 359.533 12.1227 360.067 11.936 360.56C11.7627 361.053 11.516 361.48 11.196 361.84C10.876 362.2 10.496 362.487 10.056 362.7C9.61602 362.9 9.13602 363 8.61602 363H2.27602V349.04ZM3.95602 361.52H8.09602C8.81602 361.52 9.38268 361.34 9.79602 360.98C10.2093 360.607 10.416 360.067 10.416 359.36V358.68C10.416 357.973 10.2093 357.44 9.79602 357.08C9.38268 356.707 8.81602 356.52 8.09602 356.52H3.95602V361.52ZM3.95602 355.08H7.81602C8.48268 355.08 9.00268 354.913 9.37602 354.58C9.74935 354.247 9.93602 353.767 9.93602 353.14V352.46C9.93602 351.833 9.74935 351.353 9.37602 351.02C9.00268 350.687 8.48268 350.52 7.81602 350.52H3.95602V355.08ZM15.3424 363V349.04H17.0224V361.52H22.9624V363H15.3424ZM29.9765 363.24C29.0698 363.24 28.2498 363.087 27.5165 362.78C26.7965 362.46 26.1765 362 25.6565 361.4C25.1498 360.787 24.7565 360.033 24.4765 359.14C24.1965 358.233 24.0565 357.193 24.0565 356.02C24.0565 354.847 24.1965 353.813 24.4765 352.92C24.7565 352.027 25.1498 351.273 25.6565 350.66C26.1765 350.047 26.7965 349.587 27.5165 349.28C28.2498 348.96 29.0698 348.8 29.9765 348.8C30.8698 348.8 31.6832 348.96 32.4165 349.28C33.1498 349.587 33.7698 350.047 34.2765 350.66C34.7965 351.273 35.1965 352.027 35.4765 352.92C35.7565 353.813 35.8965 354.847 35.8965 356.02C35.8965 357.193 35.7565 358.233 35.4765 359.14C35.1965 360.033 34.7965 360.787 34.2765 361.4C33.7698 362 33.1498 362.46 32.4165 362.78C31.6832 363.087 30.8698 363.24 29.9765 363.24ZM29.9765 361.74C30.5765 361.74 31.1298 361.633 31.6365 361.42C32.1432 361.207 32.5765 360.9 32.9365 360.5C33.3098 360.1 33.5965 359.62 33.7965 359.06C33.9965 358.5 34.0965 357.873 34.0965 357.18V354.86C34.0965 354.167 33.9965 353.54 33.7965 352.98C33.5965 352.42 33.3098 351.94 32.9365 351.54C32.5765 351.14 32.1432 350.833 31.6365 350.62C31.1298 350.407 30.5765 350.3 29.9765 350.3C29.3765 350.3 28.8232 350.407 28.3165 350.62C27.8098 350.833 27.3698 351.14 26.9965 351.54C26.6365 351.94 26.3565 352.42 26.1565 352.98C25.9565 353.54 25.8565 354.167 25.8565 354.86V357.18C25.8565 357.873 25.9565 358.5 26.1565 359.06C26.3565 359.62 26.6365 360.1 26.9965 360.5C27.3698 360.9 27.8098 361.207 28.3165 361.42C28.8232 361.633 29.3765 361.74 29.9765 361.74ZM47.9566 360.96H47.8966C47.7233 361.613 47.2966 362.16 46.6166 362.6C45.95 363.027 45.0833 363.24 44.0166 363.24C43.1633 363.24 42.3766 363.087 41.6566 362.78C40.95 362.46 40.3433 362 39.8366 361.4C39.33 360.787 38.93 360.033 38.6366 359.14C38.3566 358.233 38.2166 357.193 38.2166 356.02C38.2166 354.86 38.3566 353.833 38.6366 352.94C38.9166 352.033 39.3166 351.28 39.8366 350.68C40.3566 350.067 40.9833 349.6 41.7166 349.28C42.45 348.96 43.2633 348.8 44.1566 348.8C45.41 348.8 46.4566 349.08 47.2966 349.64C48.1366 350.2 48.7833 350.94 49.2366 351.86L47.8566 352.7C47.5366 351.953 47.0566 351.367 46.4166 350.94C45.79 350.513 45.0366 350.3 44.1566 350.3C43.5433 350.3 42.9833 350.413 42.4766 350.64C41.97 350.853 41.53 351.16 41.1566 351.56C40.7966 351.96 40.5166 352.44 40.3166 353C40.1166 353.56 40.0166 354.187 40.0166 354.88V357.14C40.0166 357.833 40.1166 358.467 40.3166 359.04C40.5166 359.6 40.7966 360.08 41.1566 360.48C41.53 360.88 41.9833 361.193 42.5166 361.42C43.05 361.633 43.65 361.74 44.3166 361.74C44.7966 361.74 45.25 361.68 45.6766 361.56C46.1166 361.427 46.4966 361.233 46.8166 360.98C47.15 360.727 47.41 360.413 47.5966 360.04C47.7833 359.653 47.8766 359.2 47.8766 358.68V357.3H44.7966V355.82H49.5166V363H47.9566V360.96ZM56.7429 363.24C55.6096 363.24 54.6429 363.027 53.8429 362.6C53.0429 362.16 52.3629 361.56 51.8029 360.8L53.0429 359.76C53.5362 360.413 54.0829 360.913 54.6829 361.26C55.2829 361.593 55.9896 361.76 56.8029 361.76C57.8029 361.76 58.5629 361.52 59.0829 361.04C59.6162 360.56 59.8829 359.92 59.8829 359.12C59.8829 358.453 59.6829 357.94 59.2829 357.58C58.8829 357.22 58.2229 356.933 57.3029 356.72L56.1629 356.46C54.8829 356.167 53.9029 355.727 53.2229 355.14C52.5562 354.54 52.2229 353.7 52.2229 352.62C52.2229 352.007 52.3362 351.46 52.5629 350.98C52.7896 350.5 53.1029 350.1 53.5029 349.78C53.9162 349.46 54.4029 349.22 54.9629 349.06C55.5362 348.887 56.1629 348.8 56.8429 348.8C57.8962 348.8 58.7962 348.993 59.5429 349.38C60.3029 349.767 60.9429 350.333 61.4629 351.08L60.2029 352C59.8162 351.467 59.3496 351.047 58.8029 350.74C58.2562 350.433 57.5762 350.28 56.7629 350.28C55.8696 350.28 55.1629 350.473 54.6429 350.86C54.1362 351.233 53.8829 351.8 53.8829 352.56C53.8829 353.227 54.0962 353.733 54.5229 354.08C54.9629 354.413 55.6229 354.68 56.5029 354.88L57.6429 355.14C59.0162 355.447 60.0096 355.913 60.6229 356.54C61.2362 357.167 61.5429 358 61.5429 359.04C61.5429 359.68 61.4296 360.26 61.2029 360.78C60.9896 361.3 60.6762 361.74 60.2629 362.1C59.8496 362.46 59.3429 362.74 58.7429 362.94C58.1562 363.14 57.4896 363.24 56.7429 363.24Z" fill="white"/>
<path d="M6.78391 413.24C5.01057 413.24 3.63057 412.64 2.64391 411.44C1.65724 410.227 1.16391 408.447 1.16391 406.1C1.16391 403.753 1.65724 401.953 2.64391 400.7C3.63057 399.433 5.01057 398.8 6.78391 398.8C7.95724 398.8 8.93724 399.067 9.72391 399.6C10.5239 400.133 11.1439 400.887 11.5839 401.86L10.2239 402.68C9.94391 401.96 9.51724 401.387 8.94391 400.96C8.37057 400.52 7.65057 400.3 6.78391 400.3C6.18391 400.3 5.64391 400.413 5.16391 400.64C4.69724 400.867 4.29724 401.193 3.96391 401.62C3.64391 402.033 3.39724 402.533 3.22391 403.12C3.05057 403.693 2.96391 404.34 2.96391 405.06V407.14C2.96391 408.58 3.29724 409.707 3.96391 410.52C4.63057 411.333 5.57057 411.74 6.78391 411.74C7.67724 411.74 8.42391 411.513 9.02391 411.06C9.62391 410.593 10.0639 409.98 10.3439 409.22L11.6839 410.06C11.2439 411.047 10.6106 411.827 9.78391 412.4C8.95724 412.96 7.95724 413.24 6.78391 413.24ZM19.2519 413.24C18.3452 413.24 17.5252 413.087 16.7919 412.78C16.0719 412.46 15.4519 412 14.9319 411.4C14.4252 410.787 14.0319 410.033 13.7519 409.14C13.4719 408.233 13.3319 407.193 13.3319 406.02C13.3319 404.847 13.4719 403.813 13.7519 402.92C14.0319 402.027 14.4252 401.273 14.9319 400.66C15.4519 400.047 16.0719 399.587 16.7919 399.28C17.5252 398.96 18.3452 398.8 19.2519 398.8C20.1452 398.8 20.9585 398.96 21.6919 399.28C22.4252 399.587 23.0452 400.047 23.5519 400.66C24.0719 401.273 24.4719 402.027 24.7519 402.92C25.0319 403.813 25.1719 404.847 25.1719 406.02C25.1719 407.193 25.0319 408.233 24.7519 409.14C24.4719 410.033 24.0719 410.787 23.5519 411.4C23.0452 412 22.4252 412.46 21.6919 412.78C20.9585 413.087 20.1452 413.24 19.2519 413.24ZM19.2519 411.74C19.8519 411.74 20.4052 411.633 20.9119 411.42C21.4185 411.207 21.8519 410.9 22.2119 410.5C22.5852 410.1 22.8719 409.62 23.0719 409.06C23.2719 408.5 23.3719 407.873 23.3719 407.18V404.86C23.3719 404.167 23.2719 403.54 23.0719 402.98C22.8719 402.42 22.5852 401.94 22.2119 401.54C21.8519 401.14 21.4185 400.833 20.9119 400.62C20.4052 400.407 19.8519 400.3 19.2519 400.3C18.6519 400.3 18.0985 400.407 17.5919 400.62C17.0852 400.833 16.6452 401.14 16.2719 401.54C15.9119 401.94 15.6319 402.42 15.4319 402.98C15.2319 403.54 15.1319 404.167 15.1319 404.86V407.18C15.1319 407.873 15.2319 408.5 15.4319 409.06C15.6319 409.62 15.9119 410.1 16.2719 410.5C16.6452 410.9 17.0852 411.207 17.5919 411.42C18.0985 411.633 18.6519 411.74 19.2519 411.74ZM31.572 404.48L29.892 401.38H29.832V413H28.192V399.04H30.132L35.232 407.56L36.912 410.66H36.972V399.04H38.612V413H36.672L31.572 404.48ZM47.0327 400.52V413H45.3527V400.52H40.9127V399.04H51.4727V400.52H47.0327ZM61.2094 413L59.8094 408.88H54.1694L52.7694 413H51.0694L55.9494 399.04H58.0894L62.9694 413H61.2094ZM57.0294 400.6H56.9294L54.5694 407.4H59.3894L57.0294 400.6ZM69.9089 413.24C68.1356 413.24 66.7556 412.64 65.7689 411.44C64.7822 410.227 64.2889 408.447 64.2889 406.1C64.2889 403.753 64.7822 401.953 65.7689 400.7C66.7556 399.433 68.1356 398.8 69.9089 398.8C71.0822 398.8 72.0622 399.067 72.8489 399.6C73.6489 400.133 74.2689 400.887 74.7089 401.86L73.3489 402.68C73.0689 401.96 72.6422 401.387 72.0689 400.96C71.4956 400.52 70.7756 400.3 69.9089 400.3C69.3089 400.3 68.7689 400.413 68.2889 400.64C67.8222 400.867 67.4222 401.193 67.0889 401.62C66.7689 402.033 66.5222 402.533 66.3489 403.12C66.1756 403.693 66.0889 404.34 66.0889 405.06V407.14C66.0889 408.58 66.4222 409.707 67.0889 410.52C67.7556 411.333 68.6956 411.74 69.9089 411.74C70.8022 411.74 71.5489 411.513 72.1489 411.06C72.7489 410.593 73.1889 409.98 73.4689 409.22L74.8089 410.06C74.3689 411.047 73.7356 411.827 72.9089 412.4C72.0822 412.96 71.0822 413.24 69.9089 413.24ZM82.1108 400.52V413H80.4308V400.52H75.9908V399.04H86.5508V400.52H82.1108Z" fill="white"/>
<path d="M5.25809 31.36C3.59809 31.36 2.36809 31.04 1.56809 30.4C0.788086 29.76 0.398086 28.94 0.398086 27.94C0.398086 27.32 0.598086 26.78 0.998086 26.32C1.39809 25.84 1.97809 25.6 2.73809 25.6C3.37809 25.6 3.89809 25.79 4.29809 26.17C4.71809 26.55 4.92809 27.03 4.92809 27.61C4.92809 28.01 4.85809 28.35 4.71809 28.63C4.57809 28.91 4.39809 29.11 4.17809 29.23V29.38C4.33809 29.42 4.49809 29.45 4.65809 29.47C4.83809 29.49 5.00809 29.5 5.16809 29.5C5.90809 29.5 6.46809 29.27 6.84809 28.81C7.22809 28.35 7.41809 27.56 7.41809 26.44V12.04H4.56809V10.06H14.3781V12.04H12.2781V24.85C12.2781 25.81 12.1481 26.69 11.8881 27.49C11.6481 28.29 11.2481 28.98 10.6881 29.56C10.1281 30.12 9.39809 30.56 8.49809 30.88C7.61809 31.2 6.53809 31.36 5.25809 31.36ZM21.1518 31.36C19.4518 31.36 18.2118 30.97 17.4318 30.19C16.6718 29.39 16.2918 28.28 16.2918 26.86C16.2918 23.76 18.5818 22.21 23.1618 22.21H25.2618V20.5C25.2618 19.28 25.0318 18.36 24.5718 17.74C24.1118 17.12 23.3118 16.81 22.1718 16.81C21.7518 16.81 21.3918 16.84 21.0918 16.9C20.7918 16.96 20.5318 17.04 20.3118 17.14V17.29C20.5118 17.39 20.7018 17.57 20.8818 17.83C21.0818 18.09 21.1818 18.44 21.1818 18.88C21.1818 19.48 20.9918 19.99 20.6118 20.41C20.2318 20.81 19.6618 21.01 18.9018 21.01C18.3018 21.01 17.8018 20.8 17.4018 20.38C17.0018 19.96 16.8018 19.43 16.8018 18.79C16.8018 18.31 16.9418 17.84 17.2218 17.38C17.5018 16.9 17.9218 16.48 18.4818 16.12C19.0418 15.76 19.7318 15.47 20.5518 15.25C21.3918 15.03 22.3518 14.92 23.4318 14.92C25.6118 14.92 27.2218 15.39 28.2618 16.33C29.3018 17.25 29.8218 18.56 29.8218 20.26V29.02H31.6218V30.73C31.2818 30.93 30.8418 31.08 30.3018 31.18C29.7618 31.3 29.2018 31.36 28.6218 31.36C27.5218 31.36 26.7418 31.11 26.2818 30.61C25.8418 30.09 25.6218 29.45 25.6218 28.69V28.63H25.4418C25.3018 28.97 25.1218 29.3 24.9018 29.62C24.7018 29.94 24.4318 30.23 24.0918 30.49C23.7718 30.75 23.3718 30.96 22.8918 31.12C22.4118 31.28 21.8318 31.36 21.1518 31.36ZM22.8618 28.66C23.6018 28.66 24.1818 28.49 24.6018 28.15C25.0418 27.81 25.2618 27.22 25.2618 26.38V24.01H23.6418C22.6818 24.01 21.9618 24.21 21.4818 24.61C21.0218 25.01 20.7918 25.58 20.7918 26.32V26.8C20.7918 27.44 20.9818 27.91 21.3618 28.21C21.7418 28.51 22.2418 28.66 22.8618 28.66ZM41.2604 31.36C40.0004 31.36 38.8904 31.15 37.9304 30.73C36.9904 30.31 36.1904 29.73 35.5304 28.99C34.8904 28.25 34.4004 27.38 34.0604 26.38C33.7404 25.38 33.5804 24.29 33.5804 23.11C33.5804 21.79 33.7904 20.63 34.2104 19.63C34.6304 18.61 35.2004 17.75 35.9204 17.05C36.6604 16.35 37.5204 15.82 38.5004 15.46C39.5004 15.1 40.5704 14.92 41.7104 14.92C43.5504 14.92 44.9604 15.3 45.9404 16.06C46.9404 16.82 47.4404 17.78 47.4404 18.94C47.4404 19.7 47.2304 20.31 46.8104 20.77C46.3904 21.21 45.8104 21.43 45.0704 21.43C44.3304 21.43 43.7604 21.24 43.3604 20.86C42.9604 20.46 42.7604 19.94 42.7604 19.3C42.7604 18.78 42.8904 18.35 43.1504 18.01C43.4304 17.67 43.7404 17.42 44.0804 17.26V17.08C43.8804 17.02 43.6404 16.96 43.3604 16.9C43.1004 16.84 42.7404 16.81 42.2804 16.81C41.0604 16.81 40.1104 17.2 39.4304 17.98C38.7504 18.74 38.4104 19.84 38.4104 21.28V24.4C38.4104 25.72 38.7204 26.73 39.3404 27.43C39.9604 28.11 40.8204 28.45 41.9204 28.45C43.0404 28.45 43.9304 28.19 44.5904 27.67C45.2504 27.15 45.7204 26.54 46.0004 25.84L47.6804 26.83C47.5004 27.33 47.2404 27.85 46.9004 28.39C46.5804 28.93 46.1604 29.42 45.6404 29.86C45.1204 30.3 44.5004 30.66 43.7804 30.94C43.0604 31.22 42.2204 31.36 41.2604 31.36ZM52.7251 31.36C51.8451 31.36 51.1751 31.11 50.7151 30.61C50.2551 30.09 50.0251 29.47 50.0251 28.75V28.63C50.0251 27.91 50.2551 27.3 50.7151 26.8C51.1751 26.28 51.8451 26.02 52.7251 26.02C53.6051 26.02 54.2751 26.28 54.7351 26.8C55.1951 27.3 55.4251 27.91 55.4251 28.63V28.75C55.4251 29.47 55.1951 30.09 54.7351 30.61C54.2751 31.11 53.6051 31.36 52.7251 31.36Z" fill="white"/>
<defs>
<linearGradient id="paint0_linear_1_596" x1="61.3113" y1="157.704" x2="6.75538" y2="148.086" gradientUnits="userSpaceOnUse">
<stop stop-color="#FFB147"/>
<stop offset="0.520264" stop-color="#FF6C63"/>
<stop offset="1" stop-color="#B86ADF"/>
</linearGradient>
</defs>
</svg>
